<?xml version="1.0" encoding="utf-8"?>
<!-- Generator: Adobe Illustrator 16.0.4, SVG Export Plug-In . SVG Version: 6.00 Build 0)  -->
<!DOCTYPE svg PUBLIC "-//W3C//DTD SVG 1.1//EN" "http://www.w3.org/Graphics/SVG/1.1/DTD/svg11.dtd">
<svg version="1.1" id="Layer_1" xmlns="http://www.w3.org/2000/svg" xmlns:xlink="http://www.w3.org/1999/xlink" x="0px" y="0px"
	 width="1000px" height="447.746px" viewBox="0 0 1000 447.746" enable-background="new 0 0 1000 447.746" xml:space="preserve">
<g>
	<path fill="#BCA1CC" d="M190.636,151.993l-55.172,36.736v70.294l63.111-42.031c4.394-2.916,7.949-9.564,7.949-14.829v-41.666
		C206.524,149.958,199.414,146.141,190.636,151.993"/>
	<path fill="#7F3F98" d="M188.245,223.871l-52.781,35.152l55.172,36.736c2.79,1.856,5.412,2.737,7.692,2.737
		c4.887,0,8.196-4.06,8.196-11.242V245.59c0-5.275-3.555-11.913-7.949-14.839L188.245,223.871"/>
	<polyline fill="#7F3F98" points="135.464,188.729 135.464,188.729 135.464,259.023 191.989,226.362 135.464,188.729 	"/>
	<path fill="#BCA1CC" d="M227.241,151.993l55.173,36.736v70.294l-63.111-42.031c-4.389-2.916-7.949-9.564-7.949-14.829v-41.666
		C211.354,149.958,218.469,146.141,227.241,151.993"/>
	<path fill="#7F3F98" d="M229.632,223.871l-10.33,6.879c-4.389,2.926-7.949,9.564-7.949,14.839v41.665
		c0,7.184,3.309,11.242,8.196,11.242c2.281,0,4.902-0.881,7.692-2.737l55.173-36.735L229.632,223.871"/>
	<polyline fill="#7F3F98" points="282.414,188.729 225.739,226.461 282.414,259.023 282.414,188.729 	"/>
</g>
<g>
	<path fill="#FFFFFF" d="M342.345,209.534c-2.556-0.461-5.264-0.954-7.975-0.954c-12.105,0-13.267,3.33-13.267,15.253
		c0,11.279,0.49,15.998,13.318,15.998c2.659,0,5.266-0.488,7.897-1.001l0.878,7.456c-3.898,0.901-8.519,1.599-14.273,1.599
		c-15.329,0-17.781-11.588-17.781-24.052c0-15.049,3.484-23.15,20.312-23.15c4.85,0,8.567,0.697,11.664,1.599L342.345,209.534z"/>
	<path fill="#FFFFFF" d="M368.974,247.885c-15.046,0-20.465-6.396-20.465-23.611c0-17.188,5.419-23.591,20.465-23.591
		s20.466,6.686,20.466,23.591C389.439,241.2,384.021,247.885,368.974,247.885z M368.974,240.094c8.312,0,10.635-3.639,10.635-15.82
		c0-12.16-2.323-15.799-10.635-15.799c-8.311,0-10.582,3.125-10.582,15.799C358.393,236.968,360.663,240.094,368.974,240.094z"/>
	<path fill="#FFFFFF" d="M425.762,183.547h9.782v51.874c0,3.021-0.131,5.653-0.388,8.437c-5.137,2.896-12.053,4.027-18.066,4.027
		c-15.096,0-21.446-5.6-21.446-23.611c0-17.734,6.064-23.591,20.08-23.591c3.199,0,6.917,0.493,10.039,1.264L425.762,183.547
		L425.762,183.547z M418.02,208.271c-12.259,0-12.492,6.738-12.492,16.003c0,8.463,0.595,16.078,11.562,16.078
		c2.944,0,6.402-0.52,8.39-1.548c0.205-1.86,0.283-4.105,0.283-6.172v-23.071C423.491,208.784,420.392,208.271,418.02,208.271z"/>
	<path fill="#FFFFFF" d="M453.618,229.177c0.514,8.851,5.133,10.917,12.256,10.917c6.143,0,11.769-0.593,16.494-1.189l0.826,7.304
		c-4.981,0.802-10.996,1.678-19.848,1.678c-15.407,0-19.461-9.989-19.461-23.611c0-16.674,5.163-23.591,20.468-23.591
		c16.541,0,20.078,8.725,20.078,22.427c0,1.111-0.025,2.245-0.128,3.409c-5.265,0.928-16.233,2.014-22.582,2.297L453.618,229.177z
		 M462.598,222.051c3.383-0.152,8.699-0.593,11.871-1.033c0.079-0.592,0.105-1.547,0.105-2.139c0-6.995-2.583-10.812-10.221-10.812
		c-9.68,0-10.995,6.114-10.995,14.425L462.598,222.051z"/>
	<path fill="#FFFFFF" d="M490.582,233.561c0-8.022,3.484-13.057,12.362-14.399c5.06-0.776,10.607-0.98,16.287-1.211
		c0-6.376-2.787-9.575-9.782-9.575c-5.498,0-11.279,0.566-15.975,1.159l-0.802-7.173c4.955-0.829,10.969-1.678,17.705-1.678
		c10.118,0,18.455,2.763,18.455,14.478v20.261c0,3.021-0.131,5.653-0.388,8.438c-5.137,2.895-11.978,4.026-20.544,4.026
		C495.461,247.885,490.582,243.009,490.582,233.561z M519.23,224.347c-4.055,0.157-8.75,0.236-12.493,1.112
		c-4.774,1.111-6.479,2.58-6.479,7.949c0,5.757,3.201,7.146,9.087,7.146c2.992,0,6.709-0.23,9.599-1.572
		c0.207-1.856,0.286-4.102,0.286-6.168V224.347z"/>
	<path fill="#FFFFFF" d="M577.696,247.268h-9.807v-28.416c0-7.331-1.29-10.424-10.71-10.424c-2.943,0-6.401,0.514-8.39,1.547
		c-0.205,1.856-0.283,4.101-0.283,6.167v31.125h-9.782v-34.121c0-3.02,0.131-5.652,0.389-8.437
		c5.212-2.553,12.052-4.027,20.749-4.027c16.182,0,17.833,7.561,17.833,17.11L577.696,247.268L577.696,247.268z"/>
	<path fill="#FFFFFF" d="M605.138,232.013l9.834-30.711h9.937l-21.396,62.896h-9.937l7.124-20.03l-18.555-42.866h10.374
		L605.138,232.013z"/>
	<path fill="#FFFFFF" d="M685.312,201.302h9.649l-10.322,40.16c-1.135,4.384-3.586,6.423-7.226,6.423
		c-3.665,0-6.041-2.066-7.383-6.423l-7.717-25.085l-7.689,25.059c-1.342,4.357-3.717,6.449-7.409,6.449
		c-3.688,0-6.167-2.065-7.302-6.476l-10.246-40.108h10.013l8.13,36.568l7.977-26.915c1.211-4.079,3.354-6.014,6.734-6.014
		c3.38,0,5.521,1.909,6.735,6.014l7.845,26.815L685.312,201.302z"/>
	<path fill="#FFFFFF" d="M741.192,247.268h-9.809v-28.311c0-7.331-1.342-10.43-10.812-10.43c-2.941,0-6.144,0.671-8.673,1.809v36.93
		h-9.806v-63.719h9.806v18.866c3.355-1.059,7.149-1.73,11.357-1.73c16.231,0,17.937,7.561,17.937,17.11L741.192,247.268
		L741.192,247.268z"/>
	<path fill="#FFFFFF" d="M758.232,229.177c0.515,8.851,5.137,10.917,12.257,10.917c6.143,0,11.769-0.593,16.493-1.189l0.826,7.304
		c-4.98,0.802-10.996,1.678-19.847,1.678c-15.408,0-19.458-9.989-19.458-23.611c0-16.674,5.16-23.591,20.465-23.591
		c16.541,0,20.078,8.725,20.078,22.427c0,1.111-0.025,2.245-0.128,3.409c-5.265,0.928-16.233,2.014-22.582,2.297L758.232,229.177z
		 M767.213,222.051c3.382-0.152,8.699-0.593,11.871-1.033c0.079-0.592,0.105-1.547,0.105-2.139c0-6.995-2.584-10.812-10.221-10.812
		c-9.68,0-10.996,6.114-10.996,14.425L767.213,222.051z"/>
	<path fill="#FFFFFF" d="M807.197,247.268h-9.779v-34.121c0-3.02,0.128-5.652,0.386-8.437c5.136-2.889,12.052-4.027,18.066-4.027
		c1.522,0,2.94,0.052,4.284,0.178l-0.773,7.797c-1.033-0.131-2.195-0.184-3.511-0.184c-2.941,0-6.4,0.519-8.388,1.552
		c-0.206,1.856-0.285,4.1-0.285,6.166V247.268z"/>
	<path fill="#FFFFFF" d="M833.84,229.177c0.514,8.851,5.137,10.917,12.257,10.917c6.144,0,11.77-0.593,16.493-1.189l0.826,7.304
		c-4.98,0.802-10.996,1.678-19.847,1.678c-15.408,0-19.459-9.989-19.459-23.611c0-16.674,5.159-23.591,20.465-23.591
		c16.541,0,20.078,8.725,20.078,22.427c0,1.111-0.026,2.245-0.128,3.409c-5.266,0.928-16.234,2.014-22.582,2.297L833.84,229.177z
		 M842.819,222.051c3.382-0.152,8.698-0.593,11.87-1.033c0.079-0.592,0.105-1.547,0.105-2.139c0-6.995-2.583-10.812-10.22-10.812
		c-9.679,0-10.996,6.114-10.996,14.425L842.819,222.051z"/>
</g>
</svg>
