<svg width="42" height="42" viewBox="0 0 42 42" fill="none" xmlns="http://www.w3.org/2000/svg">
<path fill-rule="evenodd" clip-rule="evenodd" d="M9.75015 31.2488C4.13507 29.7823 5.34692e-06 24.7809 5.87586e-06 18.8366L6.40878e-06 12.8477C7.04017e-06 5.75209 5.89194 -2.05651e-06 13.16 -1.43226e-06L28.84 -8.55188e-08C36.1081 5.3873e-07 42 5.75209 42 12.8477L42 18.8366C42 25.9322 36.1081 31.6843 28.84 31.6843L18.8501 31.6843L9.75015 42L9.75015 31.2488Z" fill="url(#paint0_linear)"/>
<path d="M14.7964 11.0496C15.9292 11.0496 16.8476 10.1473 16.8476 9.03431C16.8476 7.92131 15.9292 7.01904 14.7964 7.01904C13.6635 7.01904 12.7451 7.92131 12.7451 9.03431C12.7451 10.1473 13.6635 11.0496 14.7964 11.0496Z" fill="white"/>
<path d="M18.7845 12.5766V23.7573H22.3179V18.2282C22.3179 16.7692 22.5973 15.3564 24.4386 15.3564C26.2545 15.3564 26.277 17.0244 26.277 18.3203V23.7582H29.8123V17.6267C29.8123 14.6149 29.1523 12.3003 25.5692 12.3003C23.8489 12.3003 22.6957 13.2278 22.2242 14.1056H22.1764V12.5766H18.7845V12.5766ZM13.0264 12.5766H16.5654V23.7573H13.0264V12.5766Z" fill="white"/>
<defs>
<linearGradient id="paint0_linear" x1="42" y1="42" x2="-4.04336" y2="36.9634" gradientUnits="userSpaceOnUse">
<stop stop-color="#FF00A8"/>
<stop offset="1" stop-color="#EC1943"/>
</linearGradient>
</defs>
</svg>
