<?xml version="1.0" encoding="UTF-8" standalone="no"?>
<svg
   xmlns:dc="http://purl.org/dc/elements/1.1/"
   xmlns:cc="http://creativecommons.org/ns#"
   xmlns:rdf="http://www.w3.org/1999/02/22-rdf-syntax-ns#"
   xmlns:svg="http://www.w3.org/2000/svg"
   xmlns="http://www.w3.org/2000/svg"
   xmlns:sodipodi="http://sodipodi.sourceforge.net/DTD/sodipodi-0.dtd"
   xmlns:inkscape="http://www.inkscape.org/namespaces/inkscape"
   width="42"
   height="42"
   viewBox="0 0 42 42"
   fill="none"
   version="1.1"
   id="svg920"
   sodipodi:docname="linkedin-chat3.svg"
   inkscape:version="1.0.2-2 (e86c870879, 2021-01-15)">
  <metadata
     id="metadata924">
    <rdf:RDF>
      <cc:Work
         rdf:about="">
        <dc:format>image/svg+xml</dc:format>
        <dc:type
           rdf:resource="http://purl.org/dc/dcmitype/StillImage" />
        <dc:title></dc:title>
      </cc:Work>
    </rdf:RDF>
  </metadata>
  <sodipodi:namedview
     pagecolor="#ffffff"
     bordercolor="#666666"
     borderopacity="1"
     objecttolerance="10"
     gridtolerance="10"
     guidetolerance="10"
     inkscape:pageopacity="0"
     inkscape:pageshadow="2"
     inkscape:window-width="1366"
     inkscape:window-height="745"
     id="namedview922"
     showgrid="false"
     inkscape:zoom="13.214286"
     inkscape:cx="21"
     inkscape:cy="21"
     inkscape:window-x="-8"
     inkscape:window-y="-8"
     inkscape:window-maximized="1"
     inkscape:current-layer="svg920" />
  <path
     fill-rule="evenodd"
     clip-rule="evenodd"
     d="M 9.75015,10.751199 C 4.13507,12.217699 5.34692e-6,17.219099 5.87586e-6,23.163399 l 5.3292e-7,5.9889 C 7.04017e-6,36.247909 5.89194,42.000001 13.16,42 l 15.68,-10e-7 c 7.2681,-1e-6 13.16,-5.75209 13.16,-12.8477 v -5.9889 c 0,-7.0956 -5.8919,-12.8477 -13.16,-12.8477 H 18.8501 L 9.75015,-1.43226e-6 Z"
     fill="url(#paint0_linear)"
     id="path907"
     style="fill:url(#paint0_linear)" />
  <path
     d="m 14.493697,21.265816 c 1.1328,0 2.0512,-0.9023 2.0512,-2.01529 0,-1.113 -0.9184,-2.01527 -2.0512,-2.01527 -1.1329,0 -2.0513,0.90227 -2.0513,2.01527 0,1.11299 0.9184,2.01529 2.0513,2.01529 z"
     fill="#ffffff"
     id="path909"
     style="fill:#59c9f3;fill-opacity:1" />
  <path
     d="m 18.557473,23.019843 v 11.1807 h 3.5334 v -5.5291 c 0,-1.459 0.2794,-2.8718 2.1207,-2.8718 1.8159,0 1.8384,1.668 1.8384,2.9639 v 5.4379 h 3.5353 v -6.1315 c 0,-3.0118 -0.66,-5.3264 -4.2431,-5.3264 -1.7203,0 -2.8735,0.9275 -3.345,1.8053 h -0.0478 v -1.529 z m -5.7581,0 h 3.539 v 11.1807 h -3.539 z"
     fill="#ffffff"
     id="path911"
     style="fill:#59c9f3;fill-opacity:1" />
  <defs
     id="defs918">
    <linearGradient
       id="paint0_linear"
       x1="42"
       y1="42"
       x2="-4.04336"
       y2="36.9634"
       gradientUnits="userSpaceOnUse"
       gradientTransform="matrix(1,0,0,-1,0,41.999999)">
      <stop
         stop-color="#FF00A8"
         id="stop913" />
      <stop
         offset="1"
         stop-color="#EC1943"
         id="stop915" />
    </linearGradient>
  </defs>
</svg>
