<?xml version="1.0" encoding="UTF-8" standalone="no"?>
<svg
   xmlns:dc="http://purl.org/dc/elements/1.1/"
   xmlns:cc="http://creativecommons.org/ns#"
   xmlns:rdf="http://www.w3.org/1999/02/22-rdf-syntax-ns#"
   xmlns:svg="http://www.w3.org/2000/svg"
   xmlns="http://www.w3.org/2000/svg"
   xmlns:sodipodi="http://sodipodi.sourceforge.net/DTD/sodipodi-0.dtd"
   xmlns:inkscape="http://www.inkscape.org/namespaces/inkscape"
   width="48"
   height="42"
   viewBox="0 0 48 42"
   fill="none"
   version="1.1"
   id="svg1009"
   sodipodi:docname="speech.svg"
   inkscape:version="1.0.2-2 (e86c870879, 2021-01-15)">
  <metadata
     id="metadata1013">
    <rdf:RDF>
      <cc:Work
         rdf:about="">
        <dc:format>image/svg+xml</dc:format>
        <dc:type
           rdf:resource="http://purl.org/dc/dcmitype/StillImage" />
      </cc:Work>
    </rdf:RDF>
  </metadata>
  <sodipodi:namedview
     pagecolor="#ffffff"
     bordercolor="#666666"
     borderopacity="1"
     objecttolerance="10"
     gridtolerance="10"
     guidetolerance="10"
     inkscape:pageopacity="0"
     inkscape:pageshadow="2"
     inkscape:window-width="1366"
     inkscape:window-height="745"
     id="namedview1011"
     showgrid="false"
     inkscape:zoom="13.761905"
     inkscape:cx="24"
     inkscape:cy="21"
     inkscape:window-x="-8"
     inkscape:window-y="-8"
     inkscape:window-maximized="1"
     inkscape:current-layer="svg1009" />
  <path
     fill-rule="evenodd"
     clip-rule="evenodd"
     d="m 30.890611,21.998291 c 0.5345,0.1063 1.0885,0.0518 1.5919,-0.1568 0.5035,-0.2085 0.9338,-0.5617 1.2365,-1.0148 0.3028,-0.4531 0.46438,-0.9858 0.46438,-1.5307 0,-0.7307 -0.29028,-1.4315 -0.80698,-1.9482 -0.5167,-0.5168 -1.2175,-0.807 -1.9483,-0.807 -0.5449,0 -1.0776,0.1616 -1.5307,0.4643 -0.4531,0.3028 -0.8062,0.7331 -1.0148,1.2365 -0.2085,0.5035 -0.2631,1.0575 -0.1568,1.5919 0.1063,0.5345 0.3687,1.0254 0.7541,1.4108 0.3853,0.3853 0.8762,0.6477 1.4107,0.754 z m 2.3573,1.691 c -0.8689,0.3599 -1.825,0.4541 -2.7475,0.2706 -0.9224,-0.1835 -1.7697,-0.6364 -2.4347,-1.3014 -0.6651,-0.6651 -1.118,-1.5124 -1.3014,-2.4348 -0.1835,-0.9224 -0.0894,-1.8785 0.2706,-2.7474 0.3599,-0.8689 0.9694,-1.6116 1.7514,-2.1341 0.782,-0.5225 1.7013,-0.8014 2.6418,-0.8014 1.2612,0 2.4707,0.501 3.3625,1.3927 0.89178,0.8918 1.39278,2.1013 1.39278,3.3625 0,0.9405 -0.2789,1.8599 -0.80141,2.6419 -0.52251,0.782 -1.26517,1.3915 -2.13407,1.7514 z"
     fill="url(#paint0_linear)"
     id="path979"
     style="fill:url(#paint0_linear)" />
  <path
     fill-rule="evenodd"
     clip-rule="evenodd"
     d="m 23.95312,19.281498 c 0,0.5523 -0.2522,1 -0.5634,1 H 8.51652 c -0.3112,0 -0.5634,-0.4477 -0.5634,-1 0,-0.5523 0.2522,-1 0.5634,-1 h 14.8732 c 0.3112,0 0.5634,0.4477 0.5634,1 z"
     fill="url(#paint1_linear)"
     id="path981"
     style="fill:url(#paint1_linear)" />
  <path
     fill-rule="evenodd"
     clip-rule="evenodd"
     d="m 8,9.281498 c 0,0.5523 0.32108,1 0.71715,1 H 37.2828 c 0.3961,0 0.7172,-0.4477 0.7172,-1 0,-0.5523 -0.3211,-1 -0.7172,-1 H 8.71715 c -0.39607,0 -0.71715,0.4477 -0.71715,1 z"
     fill="url(#paint2_linear)"
     id="path983"
     style="fill:url(#paint2_linear)" />
  <path
     fill-rule="evenodd"
     clip-rule="evenodd"
     d="m 1.72014,1.720398 c 1.10138,-1.1014 2.59518,-1.7201 4.15278,-1.7201 l 36.25418,-1e-4 c 1.5555,0 3.0475,0.6172 4.1486,1.716 1.101,1.0988 1.7211,2.5895 1.7243,4.145 v 0.0021 18.0914 c 0,1.5576 -0.6187,3.0514 -1.7201,4.1527 -1.1014,1.1014 -2.5952,1.7202 -4.1528,1.7202 h -1.1282 l 0.0511,10.44875 c 0.0021,0.426503 -0.2666,0.807389 -0.669,0.94854 -0.4025,0.141156 -0.8502,0.01151 -1.115,-0.322872 L 30.5128,29.847398 H 5.87292 c -1.55759,0 -3.05139,-0.6188 -4.15278,-1.7202 C 0.618757,27.025898 4.46412e-6,25.531998 4.19178e-6,23.974498 L 1.02685e-6,5.873198 C 7.54515e-7,4.315598 0.618754,2.821798 1.72014,1.720398 Z m 4.15278,0.2799 c -1.02716,0 -2.01225,0.408 -2.73857,1.1343 C 2.40804,3.860898 2,4.845998 2,5.873198 v 18.1013 c 0,1.0271 0.40804,2.0122 1.13436,2.7385 0.72631,0.7263 1.7114,1.1344 2.73856,1.1344 H 30.9965 c 0.3056,0 0.5943,0.1397 0.784,0.3792 l 7.2553,9.16293 -0.0418,-8.55703 c -0.0013,-0.2661 0.1034,-0.5217 0.2911,-0.7103 0.1877,-0.1886 0.4428,-0.2946 0.7089,-0.2946 h 2.1331 c 1.0271,0 2.0122,-0.4081 2.7386,-1.1344 0.7263,-0.7263 1.1343,-1.7114 1.1343,-2.7385 v -18.0894 c -0.0021,-1.0258 -0.411,-2.0089 -1.1371,-2.7335 -0.7261,-0.7246 -1.71,-1.1316 -2.7358,-1.1316 z"
     fill="url(#paint3_linear)"
     id="path985"
     style="fill:url(#paint3_linear)" />
  <defs
     id="defs1007">
    <linearGradient
       id="paint0_linear"
       x1="7.95312"
       y1="17.4482"
       x2="18.3792"
       y2="18.5887"
       gradientUnits="userSpaceOnUse"
       gradientTransform="rotate(180,22.068256,20.749746)">
      <stop
         stop-color="#EC1943"
         id="stop987" />
      <stop
         offset="1"
         stop-color="#FF00A8"
         id="stop989" />
    </linearGradient>
    <linearGradient
       id="paint1_linear"
       x1="22"
       y1="21"
       x2="32.0521"
       y2="29.7967"
       gradientUnits="userSpaceOnUse"
       gradientTransform="rotate(180,22.97656,20.640749)">
      <stop
         stop-color="#EC1943"
         id="stop992" />
      <stop
         offset="1"
         stop-color="#FF00A8"
         id="stop994" />
    </linearGradient>
    <linearGradient
       id="paint2_linear"
       x1="8"
       y1="31"
       x2="17.0138"
       y2="45.79"
       gradientUnits="userSpaceOnUse"
       gradientTransform="matrix(1,0,0,-1,0,41.281498)">
      <stop
         stop-color="#EC1943"
         id="stop997" />
      <stop
         offset="1"
         stop-color="#FF00A8"
         id="stop999" />
    </linearGradient>
    <linearGradient
       id="paint3_linear"
       x1="0"
       y1="41.2812"
       x2="52.4029"
       y2="34.616"
       gradientUnits="userSpaceOnUse"
       gradientTransform="matrix(1,0,0,-1,0,41.281498)">
      <stop
         stop-color="#EC1943"
         id="stop1002" />
      <stop
         offset="1"
         stop-color="#FF00A8"
         id="stop1004" />
    </linearGradient>
  </defs>
</svg>
