<svg width="48" height="42" viewBox="0 0 48 42" fill="none" xmlns="http://www.w3.org/2000/svg">
<path fill-rule="evenodd" clip-rule="evenodd" d="M13.2459 19.5012C12.7114 19.3949 12.1574 19.4494 11.654 19.658C11.1505 19.8665 10.7202 20.2197 10.4175 20.6728C10.1147 21.1259 9.95312 21.6586 9.95312 22.2035C9.95312 22.9342 10.2434 23.635 10.7601 24.1517C11.2768 24.6685 11.9776 24.9587 12.7084 24.9587C13.2533 24.9587 13.786 24.7971 14.2391 24.4944C14.6922 24.1916 15.0453 23.7613 15.2539 23.2579C15.4624 22.7544 15.517 22.2004 15.4107 21.666C15.3044 21.1315 15.042 20.6406 14.6566 20.2552C14.2713 19.8699 13.7804 19.6075 13.2459 19.5012ZM10.8886 17.8102C11.7575 17.4503 12.7136 17.3561 13.6361 17.5396C14.5585 17.7231 15.4058 18.176 16.0708 18.841C16.7359 19.5061 17.1888 20.3534 17.3722 21.2758C17.5557 22.1982 17.4616 23.1543 17.1016 24.0232C16.7417 24.8921 16.1322 25.6348 15.3502 26.1573C14.5682 26.6798 13.6489 26.9587 12.7084 26.9587C11.4472 26.9587 10.2377 26.4577 9.3459 25.566C8.45412 24.6742 7.95312 23.4647 7.95312 22.2035C7.95312 21.263 8.23202 20.3436 8.75453 19.5616C9.27704 18.7796 10.0197 18.1701 10.8886 17.8102Z" fill="url(#paint0_linear)"/>
<path fill-rule="evenodd" clip-rule="evenodd" d="M22 22C22 21.4477 22.2522 21 22.5634 21H37.4366C37.7478 21 38 21.4477 38 22C38 22.5523 37.7478 23 37.4366 23H22.5634C22.2522 23 22 22.5523 22 22Z" fill="url(#paint1_linear)"/>
<path fill-rule="evenodd" clip-rule="evenodd" d="M8 32C8 31.4477 8.32108 31 8.71715 31H37.2828C37.6789 31 38 31.4477 38 32C38 32.5523 37.6789 33 37.2828 33H8.71715C8.32108 33 8 32.5523 8 32Z" fill="url(#paint2_linear)"/>
<path fill-rule="evenodd" clip-rule="evenodd" d="M1.72014 39.5611C2.82152 40.6625 4.31532 41.2812 5.87292 41.2812L42.1271 41.2813C43.6826 41.2813 45.1746 40.6641 46.2757 39.5653C47.3767 38.4665 47.9968 36.9758 48 35.4203L48 35.4182L48 17.3268C48 15.7692 47.3813 14.2754 46.2799 13.1741C45.1785 12.0727 43.6847 11.4539 42.1271 11.4539L40.9989 11.4539L41.05 1.00515C41.0521 0.578647 40.7834 0.197761 40.381 0.0566095C39.9785 -0.0845458 39.5308 0.0451043 39.266 0.379482L30.5128 11.4341L5.87292 11.4341C4.31533 11.4341 2.82153 12.0529 1.72014 13.1543C0.618757 14.2556 4.46412e-06 15.7495 4.19178e-06 17.307L1.02685e-06 35.4083C7.54515e-07 36.9659 0.618754 38.4597 1.72014 39.5611ZM5.87292 39.2812C4.84576 39.2812 3.86067 38.8732 3.13435 38.1469C2.40804 37.4206 2 36.4355 2 35.4083L2 17.307C2 16.2799 2.40804 15.2948 3.13436 14.5685C3.86067 13.8422 4.84576 13.4341 5.87292 13.4341L30.9965 13.4341C31.3021 13.4341 31.5908 13.2944 31.7805 13.0549L39.0358 3.89197L38.994 12.449C38.9927 12.7151 39.0974 12.9707 39.2851 13.1593C39.4728 13.3479 39.7279 13.4539 39.994 13.4539L42.1271 13.4539C43.1542 13.4539 44.1393 13.862 44.8657 14.5883C45.592 15.3146 46 16.2997 46 17.3268L46 35.4162C45.9979 36.442 45.589 37.4251 44.8629 38.1497C44.1368 38.8743 43.1529 39.2813 42.1271 39.2813L5.87292 39.2812Z" fill="url(#paint3_linear)"/>
<defs>
<linearGradient id="paint0_linear" x1="7.95312" y1="17.4482" x2="18.3792" y2="18.5887" gradientUnits="userSpaceOnUse">
<stop stop-color="#EC1943"/>
<stop offset="1" stop-color="#FF00A8"/>
</linearGradient>
<linearGradient id="paint1_linear" x1="22" y1="21" x2="32.0521" y2="29.7967" gradientUnits="userSpaceOnUse">
<stop stop-color="#EC1943"/>
<stop offset="1" stop-color="#FF00A8"/>
</linearGradient>
<linearGradient id="paint2_linear" x1="8" y1="31" x2="17.0138" y2="45.79" gradientUnits="userSpaceOnUse">
<stop stop-color="#EC1943"/>
<stop offset="1" stop-color="#FF00A8"/>
</linearGradient>
<linearGradient id="paint3_linear" x1="0" y1="41.2812" x2="52.4029" y2="34.616" gradientUnits="userSpaceOnUse">
<stop stop-color="#EC1943"/>
<stop offset="1" stop-color="#FF00A8"/>
</linearGradient>
</defs>
</svg>
